<?xml version="1.0" encoding="UTF-8"?>
<svg version="1.1" xmlns="http://www.w3.org/2000/svg" width="80" height="80">
<path d="M0 0 C5.13192757 2.75863001 9.57414098 5.50138622 12 11 C12.3403125 10.46890625 12.680625 9.9378125 13.03125 9.390625 C16.59452372 4.19734309 19.90433333 0.90262359 26 -1 C29.4375 -1.3125 29.4375 -1.3125 32 -1 C33.5414942 0.5414942 33.20646315 1.98443814 33.25 4.125 C33.17724684 8.70117403 32.35539408 11.99583006 30 16 C28.07619353 17.65457147 26.23757714 18.75690159 24 20 C24.99 20.66 25.98 21.32 27 22 C28.08163204 25.07849118 28.12040357 26.62158878 27.125 29.75 C26 32 26 32 25 33 C21.18708992 33.43328524 19.45425444 33.29274175 16.1875 31.1875 C14 29 14 29 13 26 C12.01 25.67 11.02 25.34 10 25 C9.87625 26.1446875 9.87625 26.1446875 9.75 27.3125 C9 30 9 30 7.3125 31.8125 C4.32128571 33.34852896 2.31736198 33.43269939 -1 33 C-3.45811625 29.31282562 -3.31118164 27.35654296 -3 23 C-2.34 22.01 -1.68 21.02 -1 20 C-1.763125 19.505 -2.52625 19.01 -3.3125 18.5 C-6.7105133 15.3390574 -8.09434985 12.52825073 -9 8 C-9.03511404 5.09556726 -8.65516239 2.87263509 -8 0 C-4.92482069 -1.53758966 -3.32251885 -0.9061415 0 0 Z " fill="#7105E7" transform="translate(28,23)"/>
<path d="M0 0 C1.5414942 1.5414942 1.20646315 2.98443814 1.25 5.125 C1.17724684 9.70117403 0.35539408 12.99583006 -2 17 C-3.92380647 18.65457147 -5.76242286 19.75690159 -8 21 C-7.01 21.66 -6.02 22.32 -5 23 C-3.91836796 26.07849118 -3.87959643 27.62158878 -4.875 30.75 C-6 33 -6 33 -7 34 C-10.95355026 34.44926708 -12.55622323 34.30871428 -15.875 32 C-16.57625 31.34 -17.2775 30.68 -18 30 C-17.67 29.34 -17.34 28.68 -17 28 C-15.68 28 -14.36 28 -13 28 C-13.33 29.32 -13.66 30.64 -14 32 C-10.535 31.505 -10.535 31.505 -7 31 C-7 29.02 -7 27.04 -7 25 C-7.66 25 -8.32 25 -9 25 C-9.33 23.35 -9.66 21.7 -10 20 C-10.66 20 -11.32 20 -12 20 C-12 19.34 -12 18.68 -12 18 C-9.03 17.34 -6.06 16.68 -3 16 C-3 13.69 -3 11.38 -3 9 C-2.34 9 -1.68 9 -1 9 C-1 6.69 -1 4.38 -1 2 C-7.22414458 3.38810249 -7.22414458 3.38810249 -13 6 C-12.67 7.32 -12.34 8.64 -12 10 C-12.99 10 -13.98 10 -15 10 C-15 12.31 -15 14.62 -15 17 C-19.75 16.25 -19.75 16.25 -22 14 C-21.625 11.875 -21.625 11.875 -21 10 C-20.67 10.66 -20.34 11.32 -20 12 C-19.6596875 11.46890625 -19.319375 10.9378125 -18.96875 10.390625 C-14.23902322 3.4972998 -8.81790464 -1.07535422 0 0 Z " fill="#EB76EC" transform="translate(60,22)"/>
<path d="M0 0 C0 2.31 0 4.62 0 7 C-0.66 7 -1.32 7 -2 7 C-2 9.31 -2 11.62 -2 14 C-7.52760359 16.10575375 -12.06997733 17.37851209 -18 17 C-18 16.01 -18 15.02 -18 14 C-16.02 14.495 -16.02 14.495 -14 15 C-14.226875 14.236875 -14.45375 13.47375 -14.6875 12.6875 C-14.790625 11.800625 -14.89375 10.91375 -15 10 C-13.5625 8.375 -13.5625 8.375 -12 7 C-12 6.01 -12 5.02 -12 4 C-7.95460285 0.62883571 -5.25188178 -0.50017922 0 0 Z " fill="#E41AEF" transform="translate(59,24)"/>
<path d="M0 0 C0.66 0 1.32 0 2 0 C2 0.99 2 1.98 2 3 C2.66 3 3.32 3 4 3 C4 3.99 4 4.98 4 6 C4.99 6 5.98 6 7 6 C7.33 7.32 7.66 8.64 8 10 C9.65 10 11.3 10 13 10 C13 10.66 13 11.32 13 12 C13.66 12 14.32 12 15 12 C15 12.66 15 13.32 15 14 C11.25 15.125 11.25 15.125 9 14 C9 16.31 9 18.62 9 21 C10.65 21.33 12.3 21.66 14 22 C13.34 20.68 12.68 19.36 12 18 C12.66 17.67 13.32 17.34 14 17 C14.66 17.33 15.32 17.66 16 18 C16.33 16.68 16.66 15.36 17 14 C17.66 14.33 18.32 14.66 19 15 C19.3125 17.75 19.3125 17.75 19 21 C16.34764532 23.9643964 14.76192877 24.89542154 10.8125 25.4375 C9.884375 25.293125 8.95625 25.14875 8 25 C5.54188375 21.31282562 5.68881836 19.35654296 6 15 C6.66 14.01 7.32 13.02 8 12 C7.236875 11.505 6.47375 11.01 5.6875 10.5 C2.17518641 7.23273154 1.43675644 4.5371256 0 0 Z " fill="#C351E0" transform="translate(19,31)"/>
<path d="M0 0 C2.97 0 5.94 0 9 0 C9.33 1.65 9.66 3.3 10 5 C10.66 5 11.32 5 12 5 C12 6.98 12 8.96 12 11 C9.69 11.33 7.38 11.66 5 12 C5 11.01 5 10.02 5 9 C3.68 8.67 2.36 8.34 1 8 C0.67 5.36 0.34 2.72 0 0 Z " fill="#5908E5" transform="translate(41,42)"/>
<path d="M0 0 C2.64 0.33 5.28 0.66 8 1 C8 1.33 8 1.66 8 2 C5.69 2 3.38 2 1 2 C1.33 4.31 1.66 6.62 2 9 C0.68 8.67 -0.64 8.34 -2 8 C-2.33 8.66 -2.66 9.32 -3 10 C-3.33 8.35 -3.66 6.7 -4 5 C-4 7.31 -4 9.62 -4 12 C-4.33 11.01 -4.66 10.02 -5 9 C-5.99 9.33 -6.98 9.66 -8 10 C-7.67 10.99 -7.34 11.98 -7 13 C-8.66611905 13.042721 -10.33382885 13.04063832 -12 13 C-12.33 12.67 -12.66 12.34 -13 12 C-12.71269945 9.66055264 -12.38063221 7.3260857 -12 5 C-10.02 5 -8.04 5 -6 5 C-6 4.34 -6 3.68 -6 3 C-6.66 2.67 -7.32 2.34 -8 2 C-5.36 2 -2.72 2 0 2 C0 1.34 0 0.68 0 0 Z " fill="#A825F1" transform="translate(40,40)"/>
<path d="M0 0 C3.19973593 1.7381926 6.27948397 3.56967235 9 6 C9 6.99 9 7.98 9 9 C8.1028125 8.2884375 8.1028125 8.2884375 7.1875 7.5625 C4.99617076 5.83534256 4.99617076 5.83534256 2 5 C2 4.34 2 3.68 2 3 C1.01 3 0.02 3 -1 3 C-0.67 3.66 -0.34 4.32 0 5 C-0.66 5.66 -1.32 6.32 -2 7 C-1.01 8.485 -1.01 8.485 0 10 C-0.66 11.32 -1.32 12.64 -2 14 C-2.99 14 -3.98 14 -5 14 C-5 13.01 -5 12.02 -5 11 C-5.66 11 -6.32 11 -7 11 C-8.28317892 7.15046324 -8.06643637 4.05261865 -8 0 C-4.92482069 -1.53758966 -3.32251885 -0.9061415 0 0 Z " fill="#9604F0" transform="translate(28,23)"/>
<path d="M0 0 C0 2.31 0 4.62 0 7 C-0.66 7 -1.32 7 -2 7 C-2 8.65 -2 10.3 -2 12 C-2.99 11.67 -3.98 11.34 -5 11 C-4.67 9.68 -4.34 8.36 -4 7 C-6.31 7.33 -8.62 7.66 -11 8 C-11.33 6.68 -11.66 5.36 -12 4 C-7.81413519 0.81076967 -5.29441695 -0.50423019 0 0 Z " fill="#F812EB" transform="translate(59,24)"/>
<path d="M0 0 C0 0.33 0 0.66 0 1 C-1.2375 1.28875 -2.475 1.5775 -3.75 1.875 C-6.72448742 2.61334794 -9.333856 3.44474933 -12 5 C-11.67 6.32 -11.34 7.64 -11 9 C-11.99 9 -12.98 9 -14 9 C-14 11.31 -14 13.62 -14 16 C-18.75 15.25 -18.75 15.25 -21 13 C-20.625 10.875 -20.625 10.875 -20 9 C-19.67 9.66 -19.34 10.32 -19 11 C-18.45472656 10.18595703 -18.45472656 10.18595703 -17.8984375 9.35546875 C-12.91553663 2.26441752 -8.98496643 -0.53909799 0 0 Z " fill="#D548E7" transform="translate(59,23)"/>
<path d="M0 0 C2.4375 0.6875 2.4375 0.6875 5 2 C6.2467276 5.07526141 6.13120159 6.58765214 5.125 9.75 C4 12 4 12 3 13 C-0.95355026 13.44926708 -2.55622323 13.30871428 -5.875 11 C-6.57625 10.34 -7.2775 9.68 -8 9 C-7.67 8.34 -7.34 7.68 -7 7 C-5.68 7 -4.36 7 -3 7 C-3.33 8.32 -3.66 9.64 -4 11 C-0.535 10.505 -0.535 10.505 3 10 C3 8.02 3 6.04 3 4 C2.34 4 1.68 4 1 4 C0.67 2.68 0.34 1.36 0 0 Z " fill="#A266E3" transform="translate(50,43)"/>
<path d="M0 0 C5.625 -0.25 5.625 -0.25 9 2 C9.8125 5.4375 9.8125 5.4375 10 9 C9.01 10.485 9.01 10.485 8 12 C8.66 12 9.32 12 10 12 C10 13.32 10 14.64 10 16 C8.35 15.67 6.7 15.34 5 15 C5 10.66666667 5 6.33333333 5 2 C3.35 1.67 1.7 1.34 0 1 C0 0.67 0 0.34 0 0 Z " fill="#8503EF" transform="translate(21,24)"/>
<path d="M0 0 C3.93311164 2.94983373 4.73560008 3.57460027 6 8 C6.125 10.8125 6.125 10.8125 6 13 C3.36 13 0.72 13 -2 13 C-0.68 12.67 0.64 12.34 2 12 C1.34 8.04 0.68 4.08 0 0 Z " fill="#600BDF" transform="translate(34,29)"/>
<path d="M0 0 C1.98 0 3.96 0 6 0 C6 0.99 6 1.98 6 3 C5.34 3.66 4.68 4.32 4 5 C4.33 5.99 4.66 6.98 5 8 C3.33388095 8.042721 1.66617115 8.04063832 0 8 C-0.33 7.67 -0.66 7.34 -1 7 C-0.71269945 4.66055264 -0.38063221 2.3260857 0 0 Z " fill="#B901F6" transform="translate(28,45)"/>
<path d="M0 0 C1.65 0.33 3.3 0.66 5 1 C5 2.98 5 4.96 5 7 C2.69 7.33 0.38 7.66 -2 8 C-1.34 5.36 -0.68 2.72 0 0 Z " fill="#7308EA" transform="translate(48,46)"/>
<path d="M0 0 C3.19973593 1.7381926 6.27948397 3.56967235 9 6 C9 6.99 9 7.98 9 9 C8.1028125 8.2884375 8.1028125 8.2884375 7.1875 7.5625 C4.99617076 5.83534256 4.99617076 5.83534256 2 5 C2 4.34 2 3.68 2 3 C-2.455 2.01 -2.455 2.01 -7 1 C-7.33 2.32 -7.66 3.64 -8 5 C-8 3.35 -8 1.7 -8 0 C-4.92482069 -1.53758966 -3.32251885 -0.9061415 0 0 Z " fill="#993ADA" transform="translate(28,23)"/>
<path d="M0 0 C0 0.33 0 0.66 0 1 C-1.2375 1.28875 -2.475 1.5775 -3.75 1.875 C-6.72448742 2.61334794 -9.333856 3.44474933 -12 5 C-11.67 6.32 -11.34 7.64 -11 9 C-12.65 8.67 -14.3 8.34 -16 8 C-14.60415208 4.62670085 -13.07634389 2.95767338 -10 1 C-6.52674819 -0.1577506 -3.63932552 -0.06866652 0 0 Z " fill="#E54EDF" transform="translate(59,23)"/>
<path d="M0 0 C0.66 0 1.32 0 2 0 C2 0.99 2 1.98 2 3 C2.66 3 3.32 3 4 3 C4 3.99 4 4.98 4 6 C4.99 6 5.98 6 7 6 C7.33 7.32 7.66 8.64 8 10 C8.99 10 9.98 10 11 10 C10.67 10.66 10.34 11.32 10 12 C5.68387867 10.43050133 3.64050882 8.9205177 1.625 4.875 C0 1.26829268 0 1.26829268 0 0 Z " fill="#C36DED" transform="translate(19,31)"/>
<path d="M0 0 C0.66 0.33 1.32 0.66 2 1 C2.36923077 6.53846154 2.36923077 6.53846154 0.5 8.875 C-0.2425 9.431875 -0.2425 9.431875 -1 10 C-3.7839183 8.60804085 -3.97898997 6.84424221 -5 4 C-4.34 3.67 -3.68 3.34 -3 3 C-2.34 3.33 -1.68 3.66 -1 4 C-0.67 2.68 -0.34 1.36 0 0 Z " fill="#BD36F0" transform="translate(36,45)"/>
<path d="M0 0 C0.99 0 1.98 0 3 0 C3.66 1.65 4.32 3.3 5 5 C4.34 5 3.68 5 3 5 C3.33 5.99 3.66 6.98 4 8 C3.01 7.67 2.02 7.34 1 7 C0.67 4.69 0.34 2.38 0 0 Z " fill="#4A0FD8" transform="translate(41,43)"/>
<path d="M0 0 C0.66 0 1.32 0 2 0 C2.33 3.3 2.66 6.6 3 10 C1.68 10 0.36 10 -1 10 C-0.67 6.7 -0.34 3.4 0 0 Z " fill="#6304EF" transform="translate(33,31)"/>
<path d="M0 0 C0.66 0 1.32 0 2 0 C2 0.66 2 1.32 2 2 C2.66 2 3.32 2 4 2 C4 2.66 4 3.32 4 4 C1.36 4.33 -1.28 4.66 -4 5 C-3.67 4.01 -3.34 3.02 -3 2 C-2.01 2 -1.02 2 0 2 C0 1.34 0 0.68 0 0 Z " fill="#BB33EC" transform="translate(30,41)"/>
<path d="M0 0 C3.87132028 0.57352893 6.08172796 2.48704352 9 5 C8.67 5.66 8.34 6.32 8 7 C7.1028125 6.2884375 7.1028125 6.2884375 6.1875 5.5625 C3.99617076 3.83534256 3.99617076 3.83534256 1 3 C0.67 2.01 0.34 1.02 0 0 Z " fill="#964BDE" transform="translate(29,25)"/>
</svg>
