<?xml version="1.0" encoding="UTF-8"?>
<svg version="1.1" xmlns="http://www.w3.org/2000/svg" width="40" height="40">
<path d="M0 0 C13.2 0 26.4 0 40 0 C40 13.2 40 26.4 40 40 C26.8 40 13.6 40 0 40 C0 26.8 0 13.6 0 0 Z " fill="#FEECFE" transform="translate(0,0)"/>
<path d="M0 0 C3.83020601 0.39622821 5.40777131 2.32136369 8 5 C8.66 5 9.32 5 10 5 C10.78375 4.175 11.5675 3.35 12.375 2.5 C15 0 15 0 19 0 C19.33504304 4.80228357 18.47939916 6.97097636 16 11 C15.74803871 13.70953551 15.74803871 13.70953551 16 16 C14.68 16.33 13.36 16.66 12 17 C11.34 16.01 10.68 15.02 10 14 C9.34 14 8.68 14 8 14 C7.01 15.485 7.01 15.485 6 17 C4.68 16.67 3.36 16.34 2 16 C2.0928125 14.63875 2.0928125 14.63875 2.1875 13.25 C1.97573129 9.57934232 1.16861527 8.80112806 -1 6 C-1.25 3.3125 -1.25 3.3125 -1 1 C-0.67 0.67 -0.34 0.34 0 0 Z " fill="#BA20F6" transform="translate(11,11)"/>
<path d="M0 0 C0.47401764 4.07655174 0.31020611 5.58343751 -2.1875 8.9375 C-5 11 -5 11 -7.8125 10.8125 C-8.534375 10.544375 -9.25625 10.27625 -10 10 C-10.33 8.68 -10.66 7.36 -11 6 C-9.92781799 4.98805294 -8.84173622 3.99081943 -7.75 3 C-7.14671875 2.443125 -6.5434375 1.88625 -5.921875 1.3125 C-4 0 -4 0 0 0 Z " fill="#F31AEE" transform="translate(30,11)"/>
<path d="M0 0 C2.73957722 0.28340454 4.01967558 1.01574047 6.1875 2.75 C8.18725914 5.23245962 8.65203317 6.86829849 9 10 C7.081875 9.8453125 7.081875 9.8453125 5.125 9.6875 C4.04605469 9.60048828 4.04605469 9.60048828 2.9453125 9.51171875 C1 9 1 9 -1 6 C-1.1875 3.375 -1.1875 3.375 -1 1 C-0.67 0.67 -0.34 0.34 0 0 Z " fill="#820AF1" transform="translate(11,11)"/>
<path d="M0 0 C2.31 0.33 4.62 0.66 7 1 C7 2.65 7 4.3 7 6 C5.68 6.33 4.36 6.66 3 7 C0 2.25 0 2.25 0 0 Z " fill="#6E1AED" transform="translate(20,21)"/>
<path d="M0 0 C3.39914975 1.13304992 4.05254451 2.12518475 6 5 C3.3333581 6.33332095 1.83319697 5.67102033 -1 5 C-1.33 3.68 -1.66 2.36 -2 1 C-1.34 0.67 -0.68 0.34 0 0 Z " fill="#D730F0" transform="translate(21,16)"/>
<path d="M0 0 C0.99 0.33 1.98 0.66 3 1 C2.67 3.64 2.34 6.28 2 9 C0.5 7.8125 0.5 7.8125 -1 6 C-1.25 3.375 -1.25 3.375 -1 1 C-0.67 0.67 -0.34 0.34 0 0 Z " fill="#A115F5" transform="translate(11,11)"/>
<path d="M0 0 C0 1.98 0 3.96 0 6 C-0.66 4.68 -1.32 3.36 -2 2 C-2.61875 2.350625 -3.2375 2.70125 -3.875 3.0625 C-4.57625 3.371875 -5.2775 3.68125 -6 4 C-6.66 3.67 -7.32 3.34 -8 3 C-4.93882432 0.37613513 -4.26826873 0 0 0 Z " fill="#FC34EF" transform="translate(30,11)"/>
<path d="M0 0 C1.5 1.3125 1.5 1.3125 3 3 C3 3.99 3 4.98 3 6 C1.68 5.67 0.36 5.34 -1 5 C-0.67 3.35 -0.34 1.7 0 0 Z " fill="#620BEB" transform="translate(17,15)"/>
</svg>
